PathFileType	4	(X/Y/Z)	C:/Users/beibeiliu/ov580/test_trc/User2\sequence.17_training_dense_right.trc
DataRate	CameraRate	NumFrames	NumMarkers	Units	OrigDataRate	OrigDataStartFrame	OrigNumFrames
120	120	18	19	mm	120	1	438
Frame#	Time	ThumbCMC			ThumbMCP			ThumbIP			ThumbTip			IndexMCP			IndexPIP			IndexTip			MiddleMCP			MiddlePIP			MiddleTip			RingMCP			RingPIP			RingTip			PinkyMCP			PinkyPIP			PinkyTip			BackHand1			BackHand2			BackHand3	
		X0	Y0	Z0	X1	Y1	Z1	X2	Y2	Z2	X3	Y3	Z3	X4	Y4	Z4	X5	Y5	Z5	X6	Y6	Z6	X7	Y7	Z7	X8	Y8	Z8	X9	Y9	Z9	X10	Y10	Z10	X11	Y11	Z11	X12	Y12	Z12	X13	Y13	Z13	X14	Y14	Z14	X15	Y15	Z15	X16	Y16	Z16	X17	Y17	Z17	X18	Y18	Z18	
0	0	54.4272	-16.6403	57.0685	23.4919	-22.4774	43.109	-1.17172	-30.1849	19.8641	-18.2712	-37.8857	5.6281	53.3205	-7.19412	-27.751	43.4045	-10.2843	-56.7836	34.0232	-10.505	-78.5858	83.7447	-6.48908	-39.8049	77.1092	-9.99357	-70.1913	78.0096	-14.3034	-102.405	107.728	-15.9332	-37.4505	109.615	-19.1362	-64.3389	112.85	-20.8126	-93.2374	129.881	-28.3493	-22.867	139.279	-33.8533	-46.6135	148.168	-35.3059	-66.8255	111.787	-4.47843	17.6726	116.546	4.85521	50.8577	80.1331	4.81385	39.1074	
1	0.00833333	50.9691	-16.4401	52.7676	27.3947	-23.5633	43.1313	-0.440732	-30.0687	18.4577	-20.646	-37.943	9.40974	52.6727	-8.1091	-27.6789	40.7608	-8.94969	-55.6514	36.1533	-11.3616	-83.0692	79.4371	-6.66239	-38.3974	75.1014	-10.2709	-74.155	76.2968	-13.8795	-104.406	104.669	-15.6201	-39.8643	113.105	-20.0004	-61.41	110.665	-20.7407	-92.9642	128.497	-28.7972	-22.382	139.19	-33.7725	-47.9323	144.228	-35.5299	-71.5595	110.847	-5.20653	17.625	116.176	3.561	50.1981	78.5073	5.41773	35.8864	
2	0.0166667	51.1822	-16.0741	58.4842	27.2001	-23.4644	40.8547	-1.47919	-29.1888	20.1236	-18.3899	-36.6684	7.02921	52.575	-7.97341	-27.8474	40.3457	-9.24592	-51.4104	36.6617	-11.4352	-79.5569	78.6225	-6.54697	-43.2145	74.5917	-9.92383	-73.4012	76.1119	-14.3345	-105.596	107.182	-16.0098	-38.3359	108.469	-19.6892	-61.3326	110.603	-21.8049	-91.6844	128.576	-27.4339	-23.7087	138.234	-34.6112	-45.4404	143.696	-35.1632	-67.5452	111.51	-5.10758	16.4294	118.913	3.97458	46.9351	80.8737	5.91601	37.186	
3	0.025	49.5996	-15.198	56.0992	25.483	-22.1663	44.4233	-1.15387	-28.424	18.7601	-20.864	-36.3197	7.41493	50.6897	-6.88651	-25.1914	39.215	-8.79625	-55.3239	36.9713	-10.9792	-81.186	82.7435	-5.93426	-41.3206	78.3396	-9.81146	-74.6593	78.5676	-14.7901	-103.739	105.378	-14.2156	-39.872	109.603	-18.3952	-65.1894	108.848	-21.3637	-92.2374	128.161	-26.9719	-22.3466	136.431	-33.7134	-43.6148	145.825	-34.7363	-70.7897	108.688	-2.44867	16.7699	117.767	2.85827	50.2045	76.5006	5.53549	34.701	
4	0.0333333	48.6595	-14.0019	55.2711	26.4575	-21.8703	43.3562	-0.924209	-27.9203	20.5544	-20.0851	-36.2944	6.58004	51.4763	-6.24848	-29.0507	39.8469	-7.67847	-51.9206	37.3212	-11.187	-80.098	78.6392	-5.18125	-37.2908	76.1882	-10.136	-73.9994	75.632	-13.2883	-101.445	104.933	-15.0057	-34.7231	106.776	-18.3075	-65.6448	109.25	-19.9072	-93.4796	129.356	-28.0862	-19.6338	137.815	-33.0574	-47.9411	145.872	-35.5946	-70.727	109.994	-3.10325	20.0169	120.909	4.59985	49.5495	82.6831	5.51752	37.7743	
5	0.0416667	49.2259	-14.8189	54.0634	28.228	-22.6697	42.1072	2.19963	-29.4872	23.8374	-17.626	-36.7621	9.15373	49.021	-6.79711	-26.8609	43.3268	-8.52292	-55.3602	30.7632	-9.86353	-81.4896	81.2068	-5.3557	-37.9187	79.2248	-8.93535	-70.9243	75.385	-12.959	-99.8907	104.095	-14.3386	-38.3202	110.146	-17.7306	-62.431	107.235	-20.5439	-89.7752	131.219	-28.1108	-23.1818	135.39	-32.8805	-44.757	148.025	-33.298	-70.9857	113.835	-4.59844	16.5804	117.873	3.28187	47.1747	81.8412	5.17216	33.8942	
6	0.05	51.5443	-15.1411	54.3431	25.1929	-20.5969	44.3841	-3.02289	-27.0318	22.6596	-21.1561	-35.7262	11.6706	50.2263	-6.30664	-27.5305	38.1237	-7.44073	-54.3984	36.1155	-10.1115	-81.5649	78.3481	-4.29264	-38.9207	76.7559	-8.85523	-70.8146	75.7766	-13.2075	-101.98	108.216	-13.8893	-38.2541	111.108	-17.6278	-62.681	110.761	-19.9169	-89.7567	128.011	-27.5137	-20.9176	139.511	-33.9158	-46.3404	147.698	-33.4932	-71.387	110.799	-2.33529	19.6569	115.973	3.97292	49.7015	79.7149	5.42502	34.9298	
7	0.0583333	51.4207	-14.791	58.7071	25.6327	-20.6142	43.8422	-1.33572	-27.2895	23.254	-21.4352	-34.562	9.89739	48.4922	-5.29842	-27.4987	41.0417	-8.35682	-56.9341	33.5156	-9.09738	-83.4509	80.3654	-5.20689	-41.0425	76.9329	-9.09385	-72.4788	78.3377	-13.3439	-106.395	109.086	-14.8671	-39.0014	112.549	-17.8997	-63.9472	108.556	-18.6991	-89.6227	128.666	-26.6937	-19.5413	136.355	-32.4316	-43.5774	148.222	-31.9609	-68.3293	109.774	-1.21833	15.2993	117.171	5.30227	51.2295	78.1647	6.98746	38.0691	
8	0.0666667	53.1158	-15.3474	53.2307	26.0203	-20.9715	44.1699	1.52242	-27.6727	24.086	-19.6929	-35.3238	11.4117	50.5451	-6.47765	-29.2157	40.5519	-7.56372	-54.7933	36.3628	-9.47118	-78.9933	81.5239	-4.65604	-39.6876	77.8182	-9.37937	-74.6359	76.3588	-12.8579	-99.9438	106.301	-13.4676	-35.0015	109.535	-18.0045	-60.9316	111.023	-18.6725	-92.1873	130.693	-26.4366	-21.0261	136.31	-32.6279	-46.4052	148.733	-34.4752	-65.7081	114.604	-1.52755	16.4288	120.086	4.28782	47.8716	82.0699	5.71328	38.4029	
9	0.075	52.3621	-13.8738	58.7665	25.8807	-21.1866	43.8323	0.698743	-26.8201	24.4434	-20.0264	-33.7457	9.76377	53.0449	-5.74179	-29.2686	40.2613	-8.132	-50.709	34.8792	-10.0003	-81.231	78.3009	-3.38904	-41.4462	77.4771	-8.65054	-73.8781	75.2895	-11.5101	-100.311	107.756	-13.4969	-34.9103	108.883	-17.767	-60.652	109.681	-19.0281	-90.2038	133.308	-26.8642	-20.6893	137.987	-32.3853	-45.2393	145.031	-31.956	-67.7837	110.311	-3.33909	20.1744	120.073	3.42763	47.2738	84.5291	7.47836	38.9485	
10	0.0833333	54.1242	-14.2046	54.8916	23.665	-19.5541	42.3946	-2.6641	-27.0814	23.5653	-20.0085	-34.8092	7.96677	51.7711	-5.35653	-25.1055	39.1404	-7.66867	-54.7339	38.2248	-9.29387	-79.5813	80.8891	-4.7689	-40.9954	80.5575	-8.13198	-70.4521	77.595	-12.4836	-100.995	109.29	-13.9523	-38.6254	110.566	-17.3442	-61.5056	110.549	-19.0078	-90.0397	133.687	-27.8939	-20.9315	137.591	-32.6357	-45.2798	146.738	-31.8862	-70.7533	110.938	-2.87699	21.6035	119.47	5.37324	51.1663	83.3425	5.00065	39.521	
11	0.0916667	53.3161	-15.1018	59.0599	29.1031	-21.2468	42.2503	-2.25439	-27.0637	19.7837	-22.6486	-34.2249	7.22859	49.4061	-5.32029	-27.3643	41.5452	-6.82541	-55.1291	35.0827	-9.42115	-82.345	78.6936	-4.16147	-37.8241	78.8193	-7.63556	-72.2525	74.6659	-11.0406	-101.588	108.422	-13.0473	-38.1798	111.467	-17.5929	-61.6997	109.478	-19.1943	-92.61	129.389	-25.7452	-25.1679	139.585	-31.4511	-48.2606	148.292	-32.7413	-69.472	112.159	-2.79016	15.8309	118.31	4.46641	49.4067	78.4622	5.28969	35.811	
12	0.1	50.8756	-13.8025	58.3333	27.631	-20.543	42.2158	0.539835	-27.3428	24.0011	-19.532	-33.7322	10.1884	48.2646	-3.44461	-29.4428	41.9353	-6.41746	-55.2607	33.1793	-9.07876	-77.8393	77.8793	-3.03913	-42.9433	80.285	-8.6044	-74.9856	77.755	-11.9681	-102.47	107.096	-12.8902	-39.6541	112.846	-17.435	-65.3331	108.176	-18.0055	-92.5555	131.98	-25.1759	-24.3932	137.34	-30.888	-47.4383	145.214	-31.9256	-70.4832	110.696	-0.174541	17.0246	117.924	3.91891	48.4435	79.7223	8.09577	38.92	
13	0.108333	54.038	-14.8114	54.555	26.4305	-21.2244	41.8964	1.40042	-26.6886	21.7752	-19.0564	-34.2571	11.4517	52.7349	-5.13181	-27.5781	43.3904	-6.59731	-55.1418	33.7223	-8.8916	-83.4875	83.4052	-3.82488	-38.9735	80.4615	-7.96352	-70.6991	78.4618	-11.9113	-104.703	109.925	-13.5378	-40.1843	107.104	-16.9617	-62.8193	110.375	-18.9794	-88.7709	132.816	-25.9698	-20.4014	139.65	-32.0946	-47.9555	143.645	-31.8584	-67.4997	110.774	-1.27589	20.4119	117.949	4.36351	47.4942	79.0478	8.10785	39.2743	
14	0.116667	51.9993	-14.6847	55.1233	24.0401	-20.6611	44.9416	0.244467	-26.7589	22.3281	-22.2871	-32.9759	7.16299	49.1074	-4.07412	-30.3449	42.5361	-7.5892	-57.2711	33.2075	-9.26928	-80.4479	78.3848	-4.11719	-40.1621	80.6237	-8.08272	-69.967	77.0005	-11.8298	-103.377	110.104	-13.8861	-38.4867	110.104	-16.8163	-66.0658	108.891	-18.5883	-93.6671	130.868	-26.3626	-20.8751	141.257	-31.3996	-43.4823	146.956	-31.2476	-70.261	113.675	-2.28265	18.3908	116.384	5.29226	49.6597	79.1962	5.73721	35.5725	
15	0.125	50.4783	-13.2906	55.1077	26.1004	-21.0226	43.1047	-0.760476	-26.6225	23.6219	-19.3273	-33.943	10.0727	48.7067	-3.9549	-29.1066	39.3719	-7.36884	-56.3733	31.759	-8.57289	-80.327	79.3007	-4.31415	-42.4735	75.4968	-7.96363	-73.5626	74.7664	-10.7771	-101.498	105.167	-12.9303	-39.6286	112.726	-16.8452	-61.4665	111.254	-18.3808	-91.8995	131.541	-26.0174	-21.7009	140.1	-31.9325	-44.4439	146.29	-31.2036	-68.8279	115.219	-0.931902	18.9513	120.169	5.69798	46.6598	80.4894	6.16656	38.8576	
16	0.133333	54.1622	-14.6468	55.4788	24.7359	-20.5897	42.8733	0.664444	-27.1203	19.224	-20.5671	-34.5014	8.36397	48.7241	-4.10335	-29.671	38.5294	-6.95591	-54.1928	35.0379	-8.79339	-83.0562	78.8345	-3.13894	-38.7883	76.226	-8.01636	-70.4103	79.6803	-12.1706	-100.722	105.698	-12.6937	-34.722	109.641	-16.891	-64.4726	109.143	-17.6871	-92.9229	131.484	-25.8343	-19.0966	138.378	-32.1823	-47.7803	145.7	-31.4424	-70.589	113.242	-0.257476	19.9717	120.548	6.40108	50.3863	81.7623	6.10285	39.8317	
17	0.141667	51.2672	-13.0718	55.3353	26.8877	-21.358	39.6699	-0.801984	-27.2901	23.9998	-19.0016	-34.0745	11.7803	51.344	-4.04997	-30.2495	42.0353	-6.70341	-55.0679	35.7062	-9.61603	-80.1422	81.2792	-4.32504	-41.7733	78.253	-8.39369	-73.5111	75.0628	-10.8153	-101.908	104.889	-12.192	-37.9694	111.753	-17.2421	-65.9235	107.784	-17.8609	-90.452	130.111	-25.1277	-23.4987	139.352	-31.8935	-47.7747	149.539	-30.9117	-66.7124	114.521	-0.107445	19.5758	120.535	6.5907	52.4702	78.8706	6.70529	40.4053	
